[IMG]http://img714.imageshack.us/img714/7392/sdrbenner5.jpg[/IMG]

[IMG]http://www.horror-movies.ca/albums/userpics/poster_species-awakening.jpg[/IMG]


[IMG]http://www.nvminc.org/images/dvd-icon.jpg[/IMG]

[IMG]http://myph.us/pics/64623_8we5inyn.png[/IMG]
General
Complete name                    : Species The Awakening (2007)DvDrip{Dual audio}[Eng Hindi]Current_HD
Format                           : AVI
Format/Info                      : Audio Video Interleave
Format profile                   : OpenDML
File size                        : 787 MiB
Duration                         : 1h 38mn
Overall bit rate                 : 1 122 Kbps
Writing application              : AVI-Mux GUI 1.17.8.3, Feb 16 201019:42:50

Video
ID                               : 0
Format                           : MPEG-4 Visual
Format profile                   : Advanced Simple@L5
Format settings, BVOP            : Yes
Format settings, QPel            : No
Format settings, GMC             : No warppoints
Format settings, Matrix          : Default (H.263)
Muxing mode                      : Packed bitstream
Codec ID                         : XVID
Codec ID/Hint                    : XviD
Duration                         : 1h 38mn
Bit rate                         : 856 Kbps
Width                            : 640 pixels
Height                           : 352 pixels
Display aspect ratio             : 16:9
Frame rate                       : 23.976 fps
Color space                      : YUV
Chroma subsampling               : 4:2:0
Bit depth                        : 8 bits
Scan type                        : Progressive
Bits/(Pixel*Frame)               : 0.158
Stream size                      : 601 MiB (76%)
Writing library                  : XviD 1.2.0.dev47 (UTC 2006-11-01)

Audio #1
ID                               : 1
Format                           : MPEG Audio
Format version                   : Version 1
Format profile                   : Layer 3
Mode                             : Joint stereo
Mode extension                   : MS Stereo
Codec ID                         : 55
Codec ID/Hint                    : MP3
Duration                         : 1h 38mn
Bit rate mode                    : Variable
Bit rate                         : 128 Kbps
Channel(s)                       : 2 channels
Sampling rate                    : 48.0 KHz
Stream size                      : 90.3 MiB (11%)
Alignment                        : Aligned on interleaves
Interleave, duration             : 24 ms (0.58 video frame)
Interleave, preload duration     : 65 ms
Writing library                  : LAME3.97 
Encoding settings                : -m j -V 4 -q 7 -lowpass 17 --abr 128

Audio #2
ID                               : 2
Format                           : MPEG Audio
Format version                   : Version 1
Format profile                   : Layer 3
Mode                             : Joint stereo
Mode extension                   : MS Stereo
Codec ID                         : 55
Codec ID/Hint                    : MP3
Duration                         : 1h 38mn
Bit rate mode                    : Constant
Bit rate                         : 128 Kbps
Channel(s)                       : 2 channels
Sampling rate                    : 48.0 KHz
Stream size                      : 89.7 MiB (11%)
Alignment                        : Aligned on interleaves
Interleave, duration             : 767 ms (18.39 video frames)
Interleave, preload duration     : 216 ms
Title                            : CurrentHD
Writing library                  : LAME3.97

[IMG]http://img99.imageshack.us/img99/2379/67869504.jpg[/IMG]
[IMG]http://img443.imageshack.us/img443/8307/19043326.jpg[/IMG]
[IMG]http://img808.imageshack.us/img808/9033/41569355.jpg[/IMG]
[IMG]http://img841.imageshack.us/img841/8251/13233588.jpg[/IMG]
[IMG]http://img149.imageshack.us/img149/6451/10471356.jpg[/IMG]

